<svg width="48" height="48" viewBox="0 0 48 48" fill="none" xmlns="http://www.w3.org/2000/svg">
<path d="M30.8774 12H17.8575C16.5692 12 15.3337 12.5118 14.4227 13.4227C13.5118 14.3337 13 15.5692 13 16.8575V30.1702C13 30.8081 13.1256 31.4397 13.3698 32.0291C13.6139 32.6184 13.9717 33.1539 14.4227 33.605C14.8738 34.056 15.4093 34.4138 15.9986 34.658C16.588 34.9021 17.2196 35.0277 17.8575 35.0277H30.8774C31.5153 35.0277 32.1469 34.9021 32.7363 34.658C33.3256 34.4138 33.8611 34.056 34.3122 33.605C34.7632 33.1539 35.121 32.6184 35.3652 32.0291C35.6093 31.4397 35.7349 30.8081 35.7349 30.1702V16.8815C35.7374 16.2418 35.6137 15.6078 35.3708 15.016C35.1279 14.4242 34.7705 13.8861 34.3193 13.4326C33.868 12.9791 33.3317 12.6192 32.7411 12.3733C32.1505 12.1275 31.5171 12.0006 30.8774 12ZM24.3663 30.535C23.0774 30.5641 21.8091 30.2085 20.7232 29.5136C19.6373 28.8187 18.7831 27.816 18.2696 26.6335C17.7561 25.451 17.6065 24.1423 17.8401 22.8744C18.0736 21.6065 18.6796 20.437 19.5807 19.5151C20.4819 18.5931 21.6373 17.9606 22.8995 17.6982C24.1617 17.4358 25.4735 17.5554 26.6674 18.0418C27.8613 18.5282 28.8832 19.3593 29.6027 20.429C30.3222 21.4988 30.7067 22.7587 30.707 24.0479C30.7174 24.8904 30.5616 25.7267 30.2485 26.5089C29.9353 27.2911 29.471 28.0039 28.8821 28.6065C28.2931 29.209 27.5911 29.6895 26.8162 30.0204C26.0413 30.3513 25.2088 30.5262 24.3663 30.535ZM31.4126 17.5631C31.2542 17.5632 31.0974 17.5316 30.9514 17.4703C30.8054 17.409 30.6731 17.3191 30.5622 17.206C30.4514 17.0929 30.3642 16.9589 30.3058 16.8117C30.2474 16.6645 30.219 16.5071 30.2222 16.3487C30.2222 16.0267 30.3501 15.7178 30.5779 15.49C30.8056 15.2623 31.1145 15.1344 31.4366 15.1344C31.7586 15.1344 32.0675 15.2623 32.2953 15.49C32.523 15.7178 32.651 16.0267 32.651 16.3487C32.6557 16.5202 32.6234 16.6906 32.5562 16.8484C32.4889 17.0062 32.3884 17.1476 32.2615 17.2629C32.1345 17.3783 31.9841 17.4648 31.8206 17.5166C31.6571 17.5684 31.4844 17.5843 31.3142 17.5631H31.4126Z" fill="#FFFFF0"/>
<path d="M24.12 0.000300414C17.7549 -0.0315252 11.6378 2.46648 7.1145 6.9448C2.59118 11.4231 0.032126 17.5149 0.000300414 23.88C-0.0315252 30.2451 2.46648 36.3622 6.9448 40.8855C11.4231 45.4088 17.5149 47.9679 23.88 47.9997C27.0317 48.0155 30.1556 47.4103 33.0734 46.2188C35.9912 45.0272 38.6458 43.2726 40.8855 41.0552C43.1252 38.8378 44.9063 36.2009 46.1269 33.2952C47.3476 30.3894 47.9839 27.2717 47.9997 24.12C48.0155 20.9683 47.4103 17.8444 46.2188 14.9266C45.0272 12.0088 43.2726 9.35422 41.0552 7.1145C38.8378 4.87478 36.2009 3.09375 33.2952 1.87309C30.3894 0.652433 27.2717 0.0160588 24.12 0.000300414ZM38.695 30.4847C38.7017 31.5614 38.4946 32.6287 38.0857 33.6248C37.6768 34.6209 37.0743 35.5259 36.3131 36.2874C35.5518 37.0488 34.647 37.6516 33.651 38.0608C32.6551 38.47 31.5878 38.6774 30.5111 38.671H17.7337C16.657 38.6777 15.5896 38.4706 14.5936 38.0617C13.5975 37.6528 12.6925 37.0503 11.931 36.2891C11.1696 35.5278 10.5668 34.623 10.1576 33.627C9.74842 32.6311 9.54101 31.5638 9.54738 30.4871V17.7073C9.54069 16.6306 9.74779 15.5632 10.1567 14.5672C10.5656 13.5711 11.1681 12.6661 11.9293 11.9046C12.6906 11.1432 13.5954 10.5404 14.5914 10.1312C15.5873 9.72202 16.6546 9.51461 17.7313 9.52098H30.5111C31.5876 9.51461 32.6547 9.72195 33.6505 10.131C34.6463 10.54 35.551 11.1426 36.3122 11.9038C37.0734 12.665 37.676 13.5697 38.085 14.5655C38.4941 15.5613 38.7014 16.6284 38.695 17.7049V30.4847Z" fill="#FFFFF0"/>
</svg>
