<svg width="22" height="20" viewBox="0 0 22 20" fill="none" xmlns="http://www.w3.org/2000/svg">
<path d="M2.33268 0C2.88497 0 3.33268 0.447716 3.33268 1L3.33268 19C3.33268 19.5523 2.88497 20 2.33268 20H0.99935C0.447063 20 -0.000650406 19.5523 -0.000650406 19L-0.000650406 1C-0.000650406 0.447716 0.447065 0 0.99935 0H2.33268ZM20.1113 1.03647C20.7759 0.59343 21.666 1.06982 21.666 1.86852L21.666 18.1315C21.666 18.9302 20.7759 19.4066 20.1113 18.9635L7.91409 10.8321C7.32036 10.4362 7.32036 9.56377 7.91409 9.16795L20.1113 1.03647Z" fill="#FFFFF0"/>
</svg>
