<svg width="32" height="27" viewBox="0 0 32 27" fill="none" xmlns="http://www.w3.org/2000/svg">
<path d="M22 7.75792C23.9995 10.425 23.9995 15.591 22 18.2581M26.5 2.50785C32.482 8.21993 32.518 17.8336 26.5 23.5081M1 17.4466V8.56793C1 7.70692 1.672 7.00791 2.5 7.00791H7.879C8.0775 7.00721 8.2738 6.96631 8.45606 6.88768C8.63832 6.80905 8.80278 6.69432 8.9395 6.55041L13.4395 1.46834C14.3845 0.484325 16 1.18183 16 2.57235V23.4436C16 24.8447 14.365 25.5362 13.426 24.5326L8.941 19.4791C8.80388 19.3311 8.63777 19.2129 8.453 19.1318C8.26823 19.0508 8.06875 19.0087 7.867 19.0081H2.5C1.672 19.0081 1 18.3091 1 17.4466Z" stroke="#FFFFF0" stroke-width="2" stroke-linecap="round" stroke-linejoin="round"/>
</svg>
