<svg width="28" height="33" viewBox="0 0 28 33" fill="none" xmlns="http://www.w3.org/2000/svg">
<path d="M0 31.6667C0 32.219 0.447715 32.6667 1 32.6667H8.33333C8.88562 32.6667 9.33333 32.219 9.33333 31.6667V0.999999C9.33333 0.447715 8.88562 0 8.33333 0H0.999999C0.447714 0 0 0.447715 0 1V31.6667ZM19.6667 0C19.1144 0 18.6667 0.447715 18.6667 1V31.6667C18.6667 32.219 19.1144 32.6667 19.6667 32.6667H27C27.5523 32.6667 28 32.219 28 31.6667V0.999999C28 0.447715 27.5523 0 27 0H19.6667Z" fill="#FFFFF0"/>
</svg>
