<svg width="37" height="34" viewBox="0 0 37 34" fill="none" xmlns="http://www.w3.org/2000/svg">
<path d="M10.25 8.184L15.466 1.244C15.7833 0.814667 16.1607 0.5 16.598 0.3C17.0353 0.1 17.5027 0 18 0C18.4973 0 18.9647 0.1 19.402 0.3C19.8393 0.5 20.2167 0.814 20.534 1.242L25.75 8.184L33.79 10.92C34.502 11.16 35.05 11.5633 35.434 12.13C35.8193 12.698 36.012 13.3247 36.012 14.01C36.012 14.326 35.9653 14.64 35.872 14.952C35.7787 15.264 35.6267 15.5633 35.416 15.85L30.146 22.996L30.346 30.656C30.3793 31.5973 30.0687 32.39 29.414 33.034C28.7593 33.678 27.9973 34 27.128 34L26.22 33.888L18 31.466L9.78 33.888C9.61467 33.9547 9.45467 33.99 9.3 33.994C9.144 33.998 9.00133 34 8.872 34C7.98533 34 7.21867 33.678 6.572 33.034C5.92533 32.39 5.61933 31.598 5.654 30.658L5.854 22.946L0.596 15.85C0.384 15.5607 0.231333 15.2587 0.138 14.944C0.046 14.6293 0 14.3147 0 14C0 13.3253 0.198 12.6973 0.594 12.116C0.988667 11.536 1.54067 11.124 2.25 10.88L10.25 8.184Z" fill="#FFE8BD"/>
</svg>
